<svg width="17" height="17" viewBox="0 0 17 17" fill="none" xmlns="http://www.w3.org/2000/svg">
<path d="M4.77873 1.6798V2.41039H14.532C14.7512 2.41039 14.8973 2.55651 14.8973 2.77568V12.529C14.8973 12.7482 14.7512 12.8943 14.532 12.8943H4.77873C4.55956 12.8943 4.41344 12.7482 4.41344 12.529V2.77568C4.41344 2.55651 4.55956 2.41039 4.77873 2.41039V1.6798V0.949219C3.75591 0.949219 2.95227 1.75286 2.95227 2.77568V12.529C2.95227 13.5518 3.75591 14.3554 4.77873 14.3554H14.532C15.5549 14.3554 16.3585 13.5518 16.3585 12.529V2.77568C16.3585 1.75286 15.5549 0.949219 14.532 0.949219H4.77873V1.6798Z" fill="#085AF6"/>
<path d="M12.0482 15.5246H2.07573C1.92961 15.5246 1.82002 15.415 1.82002 15.2689V5.25988C1.82002 4.85806 1.49126 4.5293 1.08944 4.5293C0.687619 4.5293 0.358856 4.85806 0.358856 5.25988V15.2324C0.358856 16.1821 1.12597 16.9492 2.07573 16.9492H12.0482C12.45 16.9492 12.7788 16.6205 12.7788 16.2186C12.7788 15.8534 12.45 15.5246 12.0482 15.5246Z" fill="#085AF6"/>
</svg>
