<svg width="135" height="24" viewBox="0 0 135 24" fill="none" xmlns="http://www.w3.org/2000/svg">
<path d="M8.25246 3.53911V20.1755H5.06039V3.53911H0.215942V0.234375H10.7686L12.2707 3.53911H8.25246Z" fill="#1A1A1A"/>
<path d="M13.7729 6.91939L16.7772 13.4913L20.3448 6.9945C20.4199 6.84428 20.6076 6.84428 20.6828 6.9945L24.2879 13.4913L27.2922 6.91939H30.7096L24.2504 20.2135L20.5701 11.6887L16.8523 20.2135L10.393 6.91939H13.7729Z" fill="#1A1A1A"/>
<path d="M42.2762 14.2424H33.2633C33.3384 15.2564 33.6764 16.0826 34.2772 16.721C34.8781 17.3218 35.6292 17.6223 36.568 17.6223C37.2815 17.6223 37.8824 17.4345 38.3706 17.0965C38.8213 16.7585 39.347 16.1201 39.9479 15.1813L42.3889 16.5332C42.0133 17.1716 41.6002 17.7349 41.1871 18.1856C40.7741 18.6362 40.3234 19.0118 39.8352 19.3122C39.347 19.6126 38.8212 19.838 38.2579 19.9506C37.6946 20.0633 37.0938 20.1384 36.4554 20.1384C34.5777 20.1384 33.0755 19.5375 31.9489 18.3358C30.8223 17.1341 30.259 15.5193 30.259 13.5289C30.259 11.5386 30.8223 9.92375 31.9113 8.72202C33.038 7.5203 34.5026 6.91943 36.3051 6.91943C38.1453 6.91943 39.6099 7.5203 40.6989 8.68447C41.7504 9.84864 42.3138 11.4635 42.3138 13.5289L42.2762 14.2424ZM39.3095 11.8765C38.8964 10.3368 37.92 9.5482 36.3802 9.5482C36.0423 9.5482 35.7043 9.58577 35.4038 9.69843C35.1034 9.81109 34.803 9.9613 34.5777 10.1491C34.3148 10.3368 34.0895 10.5997 33.9392 10.8626C33.7515 11.163 33.6388 11.4635 33.5261 11.839H39.3095V11.8765Z" fill="#1A1A1A"/>
<path d="M47.9844 9.77305V20.1755H44.905V9.77305H43.5906V6.91895H44.905V3.57666H47.9844V6.91895H49.449L50.7634 9.77305H47.9844Z" fill="#1A1A1A"/>
<path d="M60.9406 7.78313V11.6512C60.2646 10.825 59.7013 10.2992 59.1756 9.9988C58.6498 9.69837 58.049 9.54815 57.3354 9.54815C56.2464 9.54815 55.3451 9.92369 54.594 10.7123C53.8429 11.501 53.5049 12.4398 53.5049 13.604C53.5049 14.7681 53.8429 15.7445 54.5564 16.4956C55.27 17.2467 56.1713 17.6222 57.2603 17.6222C57.9738 17.6222 58.5747 17.472 59.1005 17.1716C59.6262 16.8712 60.2271 16.3078 60.9406 15.4817V19.3121C59.7764 19.913 58.5747 20.2135 57.4105 20.2135C55.4577 20.2135 53.8429 19.575 52.5285 18.3358C51.2142 17.0589 50.5757 15.4817 50.5757 13.604C50.5757 11.7263 51.2517 10.149 52.5661 8.83463C53.8805 7.5578 55.5328 6.88184 57.4481 6.88184C58.6874 6.91939 59.8515 7.18226 60.9406 7.78313Z" fill="#1A1A1A"/>
<path d="M63.0811 3.57666H66.0854V8.30845C67.1369 7.3696 68.3386 6.88141 69.6154 6.88141C71.08 6.88141 72.2442 7.3696 73.1079 8.30845C73.859 9.13463 74.2346 10.449 74.2346 12.2516V20.1755H71.2303V12.5145C71.2303 11.463 71.0425 10.7119 70.6669 10.2613C70.2914 9.81061 69.6905 9.54772 68.9019 9.54772C67.8504 9.54772 67.1369 9.88571 66.6862 10.5241C66.2731 11.1625 66.0478 12.2892 66.0478 13.904V20.1755H63.0435V3.57666H63.0811Z" fill="#1A1A1A"/>
<path d="M84.3744 12.8607C84.3744 12.3222 84.2316 11.9383 83.946 11.7089C83.6651 11.4794 83.2694 11.3647 82.7591 11.3647H80.7434V14.4128H82.7591C83.2694 14.4128 83.6651 14.2887 83.946 14.0406C84.2316 13.7924 84.3744 13.3991 84.3744 12.8607ZM86.5165 12.8466C86.5165 14.0687 86.2075 14.9325 85.5894 15.4382C84.9714 15.9438 84.0888 16.1967 82.9417 16.1967H80.7434V19.9189H78.5944V9.5668H83.1032C84.1427 9.5668 84.9714 9.83368 85.5894 10.3674C86.2075 10.9012 86.5165 11.7276 86.5165 12.8466ZM92.1982 16.1967C92.0718 16.2763 91.9431 16.3418 91.812 16.3933C91.6855 16.4401 91.51 16.4846 91.2852 16.5268L90.8357 16.611C90.4143 16.6859 90.1123 16.7773 89.9297 16.8849C89.6207 17.0675 89.4662 17.3508 89.4662 17.7347C89.4662 18.0765 89.5599 18.3247 89.7471 18.4792C89.9391 18.629 90.1709 18.7039 90.4424 18.7039C90.8732 18.7039 91.2688 18.5775 91.6293 18.3247C91.9946 18.0719 92.1842 17.6107 92.1982 16.9411V16.1967ZM90.9832 15.2626C91.3531 15.2158 91.6176 15.1572 91.7768 15.087C92.0624 14.9653 92.2052 14.7756 92.2052 14.5181C92.2052 14.2044 92.0952 13.9891 91.8752 13.872C91.6598 13.7503 91.3414 13.6894 90.92 13.6894C90.4471 13.6894 90.1123 13.8065 89.9157 14.0406C89.7752 14.2138 89.6816 14.4479 89.6348 14.7429H87.7034C87.7455 14.0733 87.9328 13.5232 88.2653 13.0924C88.7943 12.4182 89.7027 12.0811 90.9902 12.0811C91.8283 12.0811 92.5728 12.2473 93.2236 12.5797C93.8744 12.9122 94.1998 13.5396 94.1998 14.4619V17.9735C94.1998 18.217 94.2045 18.512 94.2139 18.8584C94.2279 19.1206 94.2677 19.2986 94.3333 19.3922C94.3988 19.4859 94.4971 19.5631 94.6282 19.624V19.9189H92.4511C92.3902 19.7644 92.3481 19.6193 92.3246 19.4835C92.3012 19.3477 92.2825 19.1932 92.2685 19.02C91.9922 19.3196 91.6738 19.5748 91.3133 19.7855C90.8826 20.0337 90.3956 20.1577 89.8525 20.1577C89.1595 20.1577 88.586 19.9611 88.1318 19.5678C87.6823 19.1698 87.4576 18.608 87.4576 17.8822C87.4576 16.9411 87.8205 16.2599 88.5462 15.8385C88.9442 15.6091 89.5294 15.4452 90.302 15.3469L90.9832 15.2626ZM96.2927 21.3868L96.5456 21.4008C96.7422 21.4102 96.9295 21.4032 97.1074 21.3798C97.2853 21.3564 97.4352 21.3025 97.5569 21.2182C97.674 21.1386 97.7816 20.9724 97.88 20.7196C97.983 20.4668 98.0251 20.3122 98.0064 20.2561L95.1971 12.2637H97.4235L99.095 17.9103L100.675 12.2637H102.803L100.177 19.7925C99.6709 21.244 99.2705 22.1429 98.9756 22.4894C98.6806 22.8406 98.0907 23.0162 97.2057 23.0162C97.0278 23.0162 96.885 23.0138 96.7773 23.0091C96.6696 23.0091 96.5081 23.0021 96.2927 22.9881V21.3868Z" fill="#085AF6"/>
</svg>
